<?xml version="1.0" encoding="utf-8"?>
<!-- Generator: Adobe Illustrator 24.0.0, SVG Export Plug-In . SVG Version: 6.00 Build 0)  -->
<svg version="1.1" id="Layer_1" xmlns="http://www.w3.org/2000/svg" xmlns:xlink="http://www.w3.org/1999/xlink" x="0px" y="0px"
	 viewBox="0 0 1614 393" style="enable-background:new 0 0 1614 393;" xml:space="preserve">
<style type="text/css">
	.st0{fill:#FFFFFF;}
	.st1{fill:#19976A;}
</style>
<g>
	<path class="st0" d="M620.6,262.3H496.9v-183h28.9v154.1h94.8V262.3z"/>
	<path class="st0" d="M642.7,246.2c-5.3-7.9-7.9-23.2-7.9-46.1v-7.2c0-22.9,2.6-38.2,7.9-46.1c8.2-12.3,24.9-18.5,50.2-18.5
		c25.2,0,42,6.1,50.2,18.4c5.3,7.9,7.9,23.2,7.9,46v7.6c0,22.8-2.6,38.1-7.9,46c-8.2,12.3-24.9,18.4-50.2,18.4
		C667.6,264.7,650.9,258.5,642.7,246.2z M666.8,162.8c-2.1,3-3.1,13.1-3.1,30.1v7.2c0,17,1,27.1,3.1,30.1c2.5,3.7,11.1,5.6,26,5.6
		c15,0,23.7-1.9,26.2-5.6c2-2.9,3-12.9,3-29.9v-7.6c0-16.9-1-26.8-3-29.9c-2.5-3.7-11.2-5.6-26.2-5.6
		C678,157.2,669.3,159.1,666.8,162.8z"/>
	<path class="st0" d="M782.7,246.2c-5.3-7.9-7.9-23.2-7.9-46.1v-7.2c0-22.9,2.6-38.2,7.9-46.1c8.2-12.3,24.9-18.5,50.2-18.5
		c25.2,0,42,6.1,50.2,18.4c5.3,7.9,7.9,23.2,7.9,46v7.6c0,22.8-2.6,38.1-7.9,46c-8.2,12.3-24.9,18.4-50.2,18.4
		C807.6,264.7,790.9,258.5,782.7,246.2z M806.8,162.8c-2.1,3-3.1,13.1-3.1,30.1v7.2c0,17,1,27.1,3.1,30.1c2.5,3.7,11.1,5.6,26,5.6
		c15,0,23.7-1.9,26.2-5.6c2-2.9,3-12.9,3-29.9v-7.6c0-16.9-1-26.8-3-29.9c-2.5-3.7-11.2-5.6-26.2-5.6
		C818,157.2,809.3,159.1,806.8,162.8z"/>
	<path class="st0" d="M943.7,313.6h-28.9v-134h0.1c0.4-14.7,3-25.7,7.8-32.8c8.2-12.3,24.9-18.5,50.2-18.5c25.2,0,42,6.2,50.3,18.5
		c5.2,7.9,7.8,23.3,7.8,46.1v4.8c0,22.9-2.6,38.2-7.9,46.1c-8.2,12.3-24.9,18.5-50.2,18.5c-12.7,0-22.5-3.6-29.1-10.9V313.6z
		 M946.8,162.8c-2,3-3,12.2-3.1,27.6v9.8c0.1,15.4,1.1,24.6,3.1,27.6c2.5,3.7,11.1,5.6,26,5.6c15,0,23.7-1.9,26.2-5.6
		c2-3,3-13.1,3-30.1v-4.8c0-17-1-27.1-3-30.1c-2.5-3.7-11.2-5.6-26.2-5.6C957.9,157.2,949.3,159.1,946.8,162.8z"/>
	<path class="st0" d="M1164.6,262.3l-24.7-78.9l-24.7,78.9h-27.5L1044,130.7h30.5l26.9,84.6l24.8-79.2h27.5l24.8,79.3l27.2-84.7
		h30.5l-44.1,131.6H1164.6z"/>
	<path class="st0" d="M1257.2,246.2c-5.3-7.9-7.9-23.2-7.9-46.1v-7.2c0-22.9,2.6-38.2,7.9-46.1c8.2-12.3,24.9-18.5,50.2-18.5
		c25.2,0,42,6.1,50.2,18.4c5.3,7.9,7.9,23.2,7.9,46v7.6c0,22.8-2.6,38.1-7.9,46c-8.2,12.3-24.9,18.4-50.2,18.4
		C1282.1,264.7,1265.4,258.5,1257.2,246.2z M1281.3,162.8c-2.1,3-3.1,13.1-3.1,30.1v7.2c0,17,1,27.1,3.1,30.1
		c2.5,3.7,11.1,5.6,26,5.6c15,0,23.7-1.9,26.2-5.6c2-2.9,3-12.9,3-29.9v-7.6c0-16.9-1-26.8-3-29.9c-2.5-3.7-11.2-5.6-26.2-5.6
		C1292.5,157.2,1283.8,159.1,1281.3,162.8z"/>
	<path class="st0" d="M1447.4,157.2c-14.9,0-23.6,1.9-26,5.6c-2.1,3-3.1,13-3.1,29.9v69.6h-28.9v-69.6c0-22.8,2.6-38.1,7.9-46
		c8.2-12.3,24.9-18.4,50.2-18.4h20.7v28.9H1447.4z"/>
	<path class="st0" d="M1514.2,216v46.3h-28.9v-183h28.9v103l48.4-44.4l7.8-7.2h37.9l-11.2,10.3l-14.1,12.8l-23.8,21.6l2.5,0.2
		c15,2.1,25.6,7.9,31.9,17.3c5.3,7.9,7.9,23.2,7.9,46v23.4h-28.9v-23.4c0-17.7-1-28-3-31.1c-7.2-5.7-19.2-8.8-36.2-9.2L1514.2,216z"
		/>
</g>
<path class="st1" d="M196.8,0.2C88.4,0.2,0.5,88.1,0.5,196.5s87.9,196.3,196.3,196.3S393,304.9,393,196.5S305.1,0.2,196.8,0.2z
	 M313.8,209.4h-85.9l60.7,60.7c5,5,5,13.2,0,18.3c-5,5-13.2,5-18.3,0l-60.7-60.7v85.9c0,7.1-5.8,12.9-12.9,12.9s-12.9-5.8-12.9-12.9
	v-85.9l-60.7,60.7c-5,5-13.2,5-18.3,0c-5-5-5-13.2,0-18.3l60.7-60.7H79.7c-7.1,0-12.9-5.8-12.9-12.9c0-7.1,5.8-12.9,12.9-12.9h85.9
	l-60.7-60.7c-5-5-5-13.2,0-18.3c5-5,13.2-5,18.3,0l60.7,60.7V79.4c0-7.1,5.8-12.9,12.9-12.9s12.9,5.8,12.9,12.9v85.9l60.7-60.7
	c5-5,13.2-5,18.3,0v0c5,5,5,13.2,0,18.3l-60.7,60.7h85.9c7.1,0,12.9,5.8,12.9,12.9C326.7,203.6,320.9,209.4,313.8,209.4z"/>
</svg>
